<?xml version="1.0" encoding="UTF-8"?><svg xmlns="http://www.w3.org/2000/svg" width="512" height="512" viewBox="0 0 512 512"><defs><style>.b{fill:none;}.c{fill:#01a028;}.d{fill:#00ade8;}.e{fill:#012178;}.f{fill:#2fe9ca;}.f,.g,.h,.i,.j,.k,.l,.m,.n,.o,.p{mix-blend-mode:multiply;}.g{fill:#55cc06;}.h{fill:#5de92f;}.i{fill:#2b2b67;}.j{fill:#292bba;}.k{fill:#e32fe9;}.l{fill:#df1c17;}.m{fill:#e58f00;}.n{fill:#e92f82;}.o{fill:#e9dd2f;}.p{fill:#f9a31a;}.q{isolation:isolate;}</style></defs><g class="q"><g id="a"><g><polygon class="b" points="255.99 164.24 180.22 200.73 161.51 282.74 213.95 348.49 298.06 348.48 350.49 282.72 331.78 200.73 255.99 164.24"/><polygon class="d" points="180.22 200.73 255.99 164.24 225.2 149.42 255.98 85.49 220.62 12.06 83.28 78.22 118.64 151.64 187.82 167.42 180.22 200.73"/><polygon class="h" points="255.99 164.24 331.78 200.73 324.17 167.41 393.34 151.62 428.69 78.2 291.34 12.06 255.98 85.49 286.77 149.41 255.99 164.24"/><polygon class="c" points="255.99 164.24 286.77 149.41 255.98 85.49 225.2 149.42 255.99 164.24"/><polygon class="o" points="331.78 200.73 350.49 282.72 371.78 256 427.26 300.24 506.72 282.1 472.77 133.48 393.34 151.62 362.55 215.55 331.78 200.73"/><polygon class="g" points="331.78 200.73 362.55 215.55 393.34 151.62 324.17 167.41 331.78 200.73"/><polygon class="p" points="358.09 316.03 350.49 282.72 298.06 348.48 332.22 348.48 332.23 419.43 395.94 470.23 490.98 351.05 427.26 300.24 358.09 316.03"/><polygon class="m" points="350.49 282.72 358.09 316.03 427.26 300.24 371.78 256 350.49 282.72"/><polygon class="k" points="298.06 348.48 213.95 348.49 235.26 375.2 179.79 419.43 179.78 500.94 332.24 500.93 332.23 419.43 276.76 375.2 298.06 348.48"/><polygon class="l" points="298.06 348.48 276.76 375.2 332.23 419.43 332.22 348.48 298.06 348.48"/><polygon class="f" points="213.95 348.49 161.51 282.74 153.9 316.05 84.73 300.27 21.02 351.07 116.06 470.26 179.79 419.43 179.79 348.49 213.95 348.49"/><polygon class="j" points="213.95 348.49 179.79 348.49 179.79 419.43 235.26 375.2 213.95 348.49"/><polygon class="n" points="161.51 282.74 180.22 200.73 149.43 215.56 118.64 151.64 39.18 133.51 5.28 282.14 84.73 300.27 140.2 256.03 161.51 282.74"/><polygon class="e" points="180.22 200.73 187.82 167.42 118.64 151.64 149.43 215.56 180.22 200.73"/><polygon class="i" points="161.51 282.74 140.2 256.03 84.73 300.27 153.9 316.05 161.51 282.74"/></g></g></g></svg>